<svg width="72" height="40" viewBox="0 0 72 40" fill="none" xmlns="http://www.w3.org/2000/svg">
<g clip-path="url(#clip0_1057_3850)">
<path d="M0.979004 38.3051V25.3093C0.979004 25.0325 1.21874 24.8076 1.51501 24.8076H6.24917C7.80517 24.8076 9.15366 25.3315 10.2573 26.3645C11.361 27.398 11.9208 28.6601 11.9208 30.1159C11.9208 31.5717 11.361 32.8343 10.2573 33.8673C9.15366 34.9003 7.80517 35.4242 6.24917 35.4242H3.62285C3.32714 35.4242 3.08684 35.6485 3.08684 35.9258V38.3051C3.08684 38.5818 2.84711 38.8067 2.55084 38.8067H1.51501C1.2193 38.8067 0.979004 38.5824 0.979004 38.3051ZM6.24917 33.4514C7.24315 33.4514 8.06808 33.1323 8.76975 32.475C9.47142 31.8183 9.81293 31.0467 9.81293 30.1159C9.81293 29.1851 9.47199 28.414 8.76975 27.7568C8.06752 27.1001 7.24315 26.7804 6.24917 26.7804H3.62285C3.32714 26.7804 3.08684 27.0048 3.08684 27.2821V32.9497C3.08684 33.2265 3.32658 33.4514 3.62285 33.4514H6.24917Z" fill="white"/>
<path d="M28.8121 27.4512H27.7537C27.4639 27.4512 27.229 27.671 27.229 27.9423V38.3159C27.229 38.5871 27.4639 38.807 27.7537 38.807H28.8121C29.1019 38.807 29.3368 38.5871 29.3368 38.3159V27.9423C29.3368 27.671 29.1019 27.4512 28.8121 27.4512Z" fill="white"/>
<path d="M51.801 38.8223C51.5183 38.8223 51.2893 38.608 51.2893 38.3434V32.0111C51.2893 31.1819 50.9874 30.4966 50.3665 29.915C49.7457 29.334 49.0129 29.0514 48.127 29.0514C47.241 29.0514 46.5082 29.334 45.8874 29.915C45.2666 30.4961 44.9646 31.1814 44.9646 32.0111V38.3434C44.9646 38.608 44.7356 38.8223 44.4529 38.8223H43.3691C43.0863 38.8223 42.8574 38.608 42.8574 38.3434V32.0111C42.8574 31.1819 42.5554 30.4961 41.9346 29.915C41.3138 29.334 40.581 29.0514 39.695 29.0514C38.809 29.0514 38.0763 29.334 37.4555 29.915C36.8346 30.4961 36.5327 31.1814 36.5327 32.0111V38.3434C36.5327 38.608 36.3037 38.8223 36.021 38.8223H34.9292C34.6493 38.8223 34.4215 38.6112 34.4175 38.3497C34.3672 35.1005 34.3401 32.5641 34.3293 31.0962C34.3282 30.958 34.3282 30.6834 34.4192 30.3368C34.9168 28.4449 37.2926 27.5797 37.6273 27.458C38.6202 27.0966 39.4429 27.0791 39.6945 27.0791C40.745 27.0791 41.5151 27.3612 41.7243 27.4416C42.3451 27.6808 42.9133 28.0385 43.4256 28.5121L43.4358 28.5217C43.4703 28.555 43.5047 28.5883 43.5381 28.6222C43.7428 28.8275 44.086 28.8297 44.2924 28.6259C44.3297 28.5889 44.3681 28.5524 44.4066 28.5158C45.4249 27.5628 46.6761 27.0791 48.1258 27.0791C49.5755 27.0791 50.829 27.5649 51.853 28.5233C52.8769 29.4816 53.396 30.6553 53.396 32.0117V38.3439C53.396 38.6085 53.167 38.8228 52.8843 38.8228H51.8004L51.801 38.8223Z" fill="white"/>
<path d="M71.3887 33.5422C71.3887 32.7294 71.2174 31.9536 70.9075 31.245C70.8928 31.2117 70.8781 31.1783 70.8629 31.145C70.8391 31.0936 70.8148 31.0423 70.7894 30.9915C70.7724 30.9576 70.756 30.9243 70.7385 30.8904C70.704 30.8243 70.6684 30.7587 70.6316 30.6941C70.626 30.6841 70.6203 30.6735 70.6141 30.6629C70.1595 29.8739 69.5234 29.1902 68.759 28.6599C67.6446 27.8656 66.3464 27.4629 64.8871 27.4629C63.1077 27.4629 61.5676 28.0603 60.309 29.2383C59.0945 30.375 58.4595 31.7583 58.4166 33.3496C58.4154 33.3803 58.4149 33.411 58.4143 33.4416C58.4143 33.4692 58.4126 33.4956 58.4126 33.5231C58.4126 33.5343 58.4132 33.5448 58.4132 33.556C58.4132 33.6343 58.4154 33.7121 58.4188 33.7893C58.4199 33.811 58.4205 33.8327 58.4216 33.8544C58.425 33.9206 58.4301 33.9862 58.4363 34.0513C58.5132 34.9636 58.7931 35.8029 59.272 36.5628C59.272 36.5639 59.2731 36.5644 59.2737 36.5654C59.2912 36.5935 59.3082 36.6215 59.3269 36.6491C60.4594 38.4245 62.5316 39.6141 64.9018 39.6141C67.1176 39.6141 69.0745 38.5742 70.2449 36.9877C70.4982 36.6443 70.2336 36.1754 69.788 36.1754H68.5973C68.4401 36.1754 68.2914 36.2389 68.1857 36.3474C67.3726 37.1809 66.2028 37.7037 64.9018 37.7037C64.2329 37.7037 63.5991 37.5651 63.0303 37.3174C63.0111 37.3089 62.993 37.3 62.9749 37.2899C62.5604 37.0623 62.1748 36.7628 61.8005 36.4125C61.3702 36.0098 61.0508 35.5743 60.8376 35.098C60.6861 34.7588 60.9581 34.3852 61.351 34.3852H70.1001L70.7956 34.4037C71.1088 34.4122 71.3672 34.1756 71.365 33.8825H71.3791C71.3859 33.7697 71.3893 33.656 71.3893 33.5411L71.3887 33.5422ZM61.4737 32.4166C61.0564 32.4166 60.7901 32.0017 60.9835 31.6562C61.1871 31.2926 61.4584 30.9534 61.8 30.6338C62.6633 29.8257 63.6737 29.4325 64.8876 29.4325C66.1016 29.4325 67.112 29.8252 67.9753 30.6338C68.3168 30.9534 68.5882 31.2926 68.7918 31.6562C68.9857 32.0017 68.7188 32.4166 68.3016 32.4166H61.4737Z" fill="white"/>
<path d="M22.2431 27.6008C22.2431 27.297 21.9575 27.0642 21.6353 27.1028C21.2593 27.1478 20.7657 27.2425 20.2206 27.441C19.8859 27.5627 17.51 28.4279 17.0125 30.3198C16.9214 30.6664 16.9214 30.9416 16.9226 31.0791C16.9328 32.5439 16.9599 35.0719 17.0102 38.3105C17.0147 38.5851 17.2533 38.8058 17.5468 38.8058H18.5894C18.8857 38.8058 19.126 38.5809 19.126 38.3036V31.9941C19.126 31.1649 19.4279 30.479 20.0487 29.898C20.5463 29.4323 21.1162 29.1587 21.78 29.0688C22.0452 29.0328 22.2436 28.8227 22.2436 28.5719V27.6003L22.2431 27.6008Z" fill="white"/>
<path d="M31.6423 19.7032C31.3381 19.7016 31.0622 19.5434 30.9231 19.2905L28.7203 15.2845C28.6004 15.066 28.3646 14.9305 28.1051 14.9305C28.0887 14.9305 28.0723 14.931 28.0559 14.9321C27.8484 14.9464 27.6364 14.9538 27.4272 14.9538H23.7611C23.3766 14.9538 23.0639 15.2464 23.0639 15.6063V18.9222C23.0639 19.3418 22.6993 19.6831 22.2509 19.6831H20.8131C20.3647 19.6831 20 19.3418 20 18.9222V0.760971C20 0.341326 20.3647 0 20.8131 0H27.4272C29.6187 0 31.5179 0.737687 33.0728 2.19242C34.6277 3.64769 35.4158 5.42576 35.4158 7.47689C35.4158 9.52802 34.6277 11.3061 33.0728 12.7608C32.7352 13.0767 32.3751 13.363 32.0013 13.6123C31.7102 13.807 31.6203 14.17 31.7927 14.4569L34.2681 18.5777C34.4111 18.8158 34.4088 19.0989 34.2613 19.3349C34.112 19.5736 33.857 19.7112 33.5619 19.7117L31.6417 19.7032H31.6423ZM23.7611 2.86714C23.3766 2.86714 23.0639 3.15978 23.0639 3.51962V11.4336C23.0639 11.7935 23.3766 12.0861 23.7611 12.0861H27.4272C28.8011 12.0861 29.941 11.6448 30.9107 10.7372C31.8809 9.82913 32.3519 8.76281 32.3519 7.47689C32.3519 6.19096 31.8803 5.12465 30.9101 4.21656C29.9399 3.30901 28.8 2.86767 27.4266 2.86767H23.7605L23.7611 2.86714Z" fill="white"/>
<path d="M48.359 19.7009C47.7444 20.0618 47.0546 19.6967 45.9668 19.6925C45.2363 19.6898 44.5663 19.6872 43.9376 19.6845H43.7758C42.4992 19.6787 41.0528 19.6723 39.2305 19.6671C38.5317 19.6671 37.9629 19.0622 37.9629 18.3187V18.1509C37.9629 18.0451 37.9742 17.898 38.0268 17.7302C38.0765 17.5709 38.1461 17.4461 38.2043 17.3587C40.4976 12.4945 42.7903 7.62963 45.0836 2.76534L44.663 2.7664C43.5242 2.76958 42.7072 2.77275 41.9117 2.77593H41.7494C40.8516 2.78016 39.9232 2.78386 38.513 2.78757C38.2162 2.78757 37.9748 2.5325 37.9748 2.21869V0.634306C37.9748 0.320498 38.2162 0.0654297 38.513 0.0654297H42.6835C42.6925 0.0654297 42.7078 0.0654297 42.7276 0.0675464L42.74 0.0686048H47.6285C48.3274 0.0686048 48.8962 0.673466 48.8962 1.41697C48.9069 1.5588 48.9041 1.76677 48.8323 2.0049C48.7854 2.15942 48.722 2.2859 48.6638 2.38221C46.3677 7.24438 44.0721 12.1071 41.776 16.9693H42.195C43.3738 16.9714 44.2457 16.973 45.1164 16.974H45.1272C46.0737 16.9756 47.0196 16.9772 48.3579 16.9788C48.6547 16.9788 48.8962 17.2339 48.8962 17.5477V19.1315C48.808 19.2919 48.6457 19.5321 48.359 19.7004V19.7009Z" fill="white"/>
</g>
<defs>
<clipPath id="clip0_1057_3850">
<rect width="70.7692" height="39.2308" fill="white" transform="translate(0.615234 0.384766)"/>
</clipPath>
</defs>
</svg>
